<svg xmlns="http://www.w3.org/2000/svg" width="1024" height="1024" viewBox="0 0 1024 1024" fill="none">
  <!-- Background Circle (Dark) -->
  <circle cx="512" cy="512" r="512" fill="transparent" />
  <circle cx="512" cy="512" r="480" fill="#0f172a" />
  
  <!-- Outer Ring (Glassy border) -->
  <circle cx="512" cy="512" r="465" fill="none" stroke="rgba(255, 255, 255, 0.1)" stroke-width="15" />
  
  <!-- Inner Glow/Gradient -->
  <defs>
    <radialGradient id="glow" cx="50%" cy="50%" r="50%">
      <stop offset="0%" stop-color="rgba(167, 139, 250, 0.6)" />
      <stop offset="70%" stop-color="rgba(139, 92, 246, 0.1)" />
      <stop offset="100%" stop-color="rgba(15, 23, 42, 0)" />
    </radialGradient>
    <linearGradient id="sparkle-gradient" x1="0%" y1="0%" x2="100%" y2="100%">
      <stop offset="0%" stop-color="#c4b5fd" />
      <stop offset="50%" stop-color="#8b5cf6" />
      <stop offset="100%" stop-color="#6d28d9" />
    </linearGradient>
  </defs>
  <circle cx="512" cy="512" r="400" fill="url(#glow)" />
  
  <!-- Sparkles Icon (scaled up) -->
  <g transform="translate(262, 262) scale(20.833)" fill="none" stroke="url(#sparkle-gradient)" stroke-width="2" stroke-linecap="round" stroke-linejoin="round">
    <path d="M9.937 15.5A2 2 0 0 0 8.5 14.063l-6.135-1.582a.5.5 0 0 1 0-.962L8.5 9.936A2 2 0 0 0 9.937 8.5l1.582-6.135a.5.5 0 0 1 .963 0L14.063 8.5A2 2 0 0 0 15.5 9.937l6.135 1.581a.5.5 0 0 1 0 .964L15.5 14.063a2 2 0 0 0-1.437 1.437l-1.582 6.135a.5.5 0 0 1-.963 0z"/>
    <path d="M20 3v4"/>
    <path d="M22 5h-4"/>
    <path d="M4 17v2"/>
    <path d="M5 18H3"/>
  </g>
</svg>
