<svg xmlns="http://www.w3.org/2000/svg" viewBox="0 0 1024 1024">
    <!-- Inner cutout detail -->
    <path fill="#FFFFFF" d="M493.33 242.439C495.316 242.734 497.148 243.356 498.202 245.223C503.09 253.886 494.969 292.35 502.638 301.172C504.95 303.832 508.087 304.927 511.539 305.126C514.592 305.302 517.446 304.569 519.696 302.422C521.782 300.432 523.096 297.656 523.672 294.859C524.616 290.273 524.174 285.08 524.148 280.399C524.094 270.487 523.778 260.56 523.798 250.652C523.802 248.975 523.657 245.669 525.02 244.536C526.459 243.34 528.961 242.823 530.799 243.072C535.895 243.763 587.455 272.992 596.687 278.042L675.945 321.143C686.621 326.961 739.064 353.809 744.123 359.542C746.941 368.958 700.562 381.369 696.165 394.169C695.09 397.298 695.954 401.348 697.459 404.201C698.708 406.567 700.664 408.111 703.232 408.844C705.974 409.626 708.903 409.365 711.589 408.488C718.784 406.138 725.871 401.181 732.514 397.498C741.63 392.443 750.89 387.702 759.927 382.494L759.688 548.104L759.897 614.334C759.921 625.132 760.331 636.078 759.888 646.862C759.792 649.193 759.688 654.262 758.059 655.939C750.458 663.764 697.004 690.947 683.707 698.113L626.331 729.583L556.073 767.998C549.142 771.755 534.198 781.98 527.416 782.016C526.902 781.724 526.651 781.598 526.147 781.221C525.123 780.455 524.417 779.654 524.083 778.382C523.032 774.375 523.684 769.611 523.769 765.493C523.964 756.11 525.022 736.897 523.858 728.335C523.412 725.054 522.181 721.387 519.325 719.426C516.463 717.46 511.759 716.291 508.337 717.045C504.01 717.999 501.246 722.025 500.205 726.107C497.48 736.792 502.621 774.685 497.658 781.013C496.975 781.885 496.029 782.633 494.877 782.647C491.703 782.687 460.793 764.822 455.728 762.048L315.674 685.047C307.146 680.362 272.963 663.318 268.069 658.441C265.311 655.694 265.018 652.853 264.714 649.151C263.895 639.209 264.485 628.732 264.482 618.736L264.517 560.301L264.439 381.817C268.499 383.515 271.906 386.01 275.585 387.881C287.003 393.686 305.042 406.069 316.57 409.851C318.78 409.295 320.906 408.828 322.873 407.632C325.819 405.86 327.88 402.925 328.548 399.553C329.194 396.22 327.993 393.089 325.752 390.626C318.126 382.247 283.491 369.767 280.07 363.145C279.486 362.015 279.239 360.87 279.706 359.64C280.291 358.1 281.701 357.134 283.057 356.33C288.762 352.948 294.867 350.043 300.718 346.893L330.436 330.693L403.376 291.047L466.138 257.238C473.844 253.099 486.111 245.729 493.33 242.439Z"/>
    
    <!-- Dark Purple Shapes -->
    <path fill="#3F10A6" d="M505.543 210.624C526.632 209.646 539.15 219.469 557.152 229.08C577.333 239.851 597.421 250.796 617.414 261.912C664.352 287.713 711.67 313.007 758.689 338.672C791.435 356.546 784.743 380.775 784.636 413.316L784.59 479.403L784.635 589.629C784.644 609.066 784.871 628.645 784.334 648.056C783.966 661.374 777.147 674.452 765.632 681.436C755.297 687.704 744.225 693.442 733.532 699.229L670.8 733.047L566.103 790.117C552.217 797.543 533.313 809.668 519.058 813.428C505.822 814.485 498.137 812.466 486.357 806.148C477.427 801.358 468.616 796.341 459.755 791.438L409.185 764.039L304.116 706.516C288.952 698.169 273.484 689.791 258.502 681.486C251.345 677.289 241.846 665.049 240.586 656.564C238.405 641.875 239.479 622.767 239.473 607.718L239.487 506.406L239.455 418.683C239.429 404.054 239.145 389.322 239.531 374.71C239.87 361.875 247.751 349.097 258.736 342.585C276.048 332.324 294.027 323.036 311.745 313.484L398.006 266.58L455.247 235.253C470.127 227.066 489.537 214.34 505.543 210.624Z"/>
    <path fill="#3F10A6" d="M511.496 338.552C523.782 338.816 523.811 349.835 523.518 358.92C523.353 364.063 523.505 369.544 523.494 374.723L523.463 431.964L523.555 596.681C523.559 622.64 523.622 648.599 523.627 674.557C523.628 682.995 520.93 686.982 512.352 688.755C499.121 687.517 499.681 677.973 500.043 667.82C500.19 663.706 500.056 659.21 500.067 655.063L500.413 591.346L500.186 403.691L500.123 368.479C500.109 362.038 499.911 355.399 500.385 348.983C500.888 342.183 505.773 339.997 511.496 338.552Z"/>
    <path fill="#3F10A6" d="M434.707 338.666C441.257 337.94 458.746 338.58 463.832 343.8C471.404 350.633 464.671 364.632 455.253 363.198C432.406 359.72 413.685 364.858 411.372 392.199C427.232 402.439 446.9 410.326 463.113 420.39C468.396 423.67 470.839 425.614 471.915 431.86C471.372 439.436 462.755 445.082 455.615 441.437C439.169 433.04 422.779 424.252 406.713 415.141C401.624 412.254 394.226 408.512 389.919 404.892C389.166 402.689 388.723 400.694 388.377 398.402C386.327 384.573 389.874 370.497 398.232 359.29C407.192 347.325 420.102 340.712 434.707 338.666Z"/>
    <path fill="#3F10A6" d="M575.627 339.196C609.878 334.904 639.792 360.474 635.907 396.258C635.072 400.939 635.177 404.492 630.66 407.289C621.989 412.658 612.704 417.526 603.778 422.485L582.253 434.423C574.86 438.514 569.253 442.952 560.433 441.805C556.203 439.05 552.641 435.233 553.563 429.766C553.95 427.545 555.054 425.513 556.705 423.979C560.166 420.787 566.455 417.794 570.597 415.273C583.837 407.216 599.899 400.225 612.556 391.574C612.36 389.509 612.064 386.916 611.689 384.897C610.652 379.509 608.065 374.541 604.246 370.602C589.324 355.362 572.216 367.489 562.793 360.452C560.565 358.788 559.127 356.2 558.733 353.461C558.295 350.416 558.893 347.158 560.76 344.676C564.337 339.919 570.221 339.817 575.627 339.196Z"/>
    <path fill="#3F10A6" d="M628.815 626.066C641.495 626.901 643.017 637.956 637.491 647.491C623.181 672.181 592.894 688.433 566.034 673.036C562.474 670.607 557.048 665.849 556.478 661.685C554.943 650.463 561.06 643.978 572.188 648.436C576.512 650.168 582.156 654.387 586.189 655.282C597.341 657.649 609.775 649.491 615.895 640.614C620.345 634.16 620.185 628.114 628.815 626.066Z"/>
    
    <!-- Dark Teal/Cyan Shapes -->
    <path fill="#008080" d="M352.334 426.667C369.722 424.412 386.395 433.573 400.642 442.36C414.265 450.762 437.433 460.493 448.98 470.851C455.28 476.581 460.184 483.678 463.317 491.598C468.26 503.772 466.889 520 466.854 533.1L466.934 575.312L466.985 630.894C466.972 640.387 467.052 650.051 466.811 659.418C466.437 673.904 454.674 684.939 440.122 680.708C437.894 680.06 435.186 679.124 433.15 677.995C419.613 670.483 406.429 662.248 392.975 654.568C389.179 652.401 385.15 649.771 383.771 645.397C382.856 642.47 383.192 639.295 384.699 636.625C386.18 633.943 388.698 631.988 391.662 631.216C398.863 629.39 410.258 638.086 416.453 641.818C425.707 647.435 435.05 652.904 444.48 658.22C444.06 622.311 444.715 586.037 444.427 550.146C444.348 540.376 445.283 508.845 443.383 501.172C440.644 492.099 435.113 486.512 426.696 482.251C405.956 471.752 385.63 458.409 364.256 449.388C356.522 446.124 344.295 451.386 340.545 458.473C337.521 464.189 338.448 478.011 338.469 484.889L338.55 517.762L338.481 549.09C338.424 556.606 337.331 565.69 339.158 572.936C340.544 578.432 343.335 582.444 348.313 585.222C367.04 595.671 384.609 573.989 400.8 569.965C404.016 569.165 407.39 569.415 410.194 571.294C412.558 572.877 414.573 575.691 415.08 578.511C415.575 581.266 414.719 583.981 413.119 586.232C407.825 593.682 377.443 607.868 367.866 609.462C356.142 611.414 342.39 608.82 332.625 601.906C323.506 595.448 317.902 585.518 316.202 574.554C315.146 567.74 315.564 560.634 315.583 553.75L315.677 523.271L315.695 483.92C315.729 469.236 314.367 454.259 323.851 441.818C331.255 432.106 340.562 428.38 352.334 426.667Z"/>
    <path fill="#008080" d="M661.759 426.671C671.627 425.282 682.63 427.956 690.957 433.289C710.729 445.954 709.543 465.407 709.498 485.77L709.427 520.414L709.458 552.052C709.486 580.284 706.696 600.825 674.351 608.579C651.036 614.169 633.028 600.751 613.533 590.416C600.639 583.581 608.096 563.137 622.186 568.587C627.451 570.784 632.703 573.652 637.674 576.513C650.055 583.637 669.753 595.472 681.439 579.611C683.372 576.98 684.605 573.901 685.021 570.663C685.538 566.703 685.288 556.32 685.301 551.977L685.411 514.12L685.497 480.424C685.522 469.295 687.617 459.662 677.48 452.353L676.879 451.926C658.223 441.777 640.162 461.372 623.543 468.449C618.724 470.501 613.322 474.313 608.531 476.565C577.677 491.07 580.498 502.476 580.699 533.111C580.861 554.846 580.896 576.581 580.807 598.316C580.754 606.478 581.229 614.796 580.721 622.904C580.247 630.475 575.505 633.225 568.915 634.679C554.412 631.273 557.574 619.546 557.587 607.393L557.588 576.379L557.514 529.992C557.503 522.113 557.043 508.874 558.348 501.499C559.85 493.13 563.42 485.27 568.734 478.632C572.297 474.086 576.506 470.085 581.228 466.757C592.183 459.032 607.084 452.383 618.919 445.559C632.798 437.557 645.583 428.699 661.759 426.671Z"/>
</svg>
